<svg width="174" height="60" viewBox="0 0 174 60" fill="none" xmlns="http://www.w3.org/2000/svg">
<path d="M44.6706 5.30039V0.000488281H50.7277V5.30039H44.6706Z" fill="url(#paint0_linear_450_13502)"/>
<path d="M44.6706 35.5856V7.57178H49.9705V35.5856C49.9705 38.6141 49.2134 42.3997 47.3206 43.5354C45.8063 44.444 44.923 38.6141 44.6706 35.5856Z" fill="url(#paint1_linear_450_13502)"/>
<path d="M38.235 48.8353C38.235 57.618 36.7208 59.5613 35.9636 59.4352C34.4494 59.4352 32.8089 54.64 32.178 52.2424V14.7645L31.0423 13.6288H7.57129V35.5856H21.9568V31.0428H18.1711V24.2286H29.1495V43.5354H6.05704C3.02852 43.5354 0.757129 38.7403 0 36.3427V12.8717C0 8.02606 4.03802 6.81465 6.05704 6.81465H32.178C36.7208 6.81465 38.1088 10.8527 38.235 12.8717V48.8353Z" fill="url(#paint2_linear_450_13502)"/>
<path d="M166.947 6.81465H139.69C136.359 6.81465 133.76 12.3669 132.876 15.1431V38.9927C132.876 42.6269 137.419 44.7973 139.69 45.4283H166.947C172.701 45.4283 173.635 40.6331 173.383 38.2355V15.1431C173.383 12.4174 169.092 8.4551 166.947 6.81465Z" fill="url(#paint3_linear_450_13502)"/>
<path d="M101.077 35.5856V9.84317C101.077 8.58872 102.094 7.57178 103.348 7.57178H125.683C126.52 7.57178 127.198 8.24974 127.198 9.08604V35.5856C127.198 38.6141 126.441 42.3997 124.548 43.5354C123.034 44.444 122.15 38.6141 121.898 35.5856V18.1716C121.898 15.6627 119.864 13.6288 117.355 13.6288H110.919C108.411 13.6288 106.377 15.6623 106.377 18.1712V35.5856C106.377 38.6141 105.62 42.3997 103.727 43.5354C102.212 44.444 101.329 38.6141 101.077 35.5856Z" fill="url(#paint4_linear_450_13502)"/>
<path d="M56.0276 48.8353C56.0276 57.618 57.5418 59.5613 58.299 59.4352C59.8132 59.4352 61.4537 54.64 62.0846 52.2424V14.7645L63.2203 13.6288H86.6913V35.5856H72.3059H65.1131V43.5354H88.2056C91.2341 43.5354 93.5055 38.7403 94.2626 36.3427V12.8717C94.2626 8.02606 90.2246 6.81465 88.2056 6.81465H62.0846C57.5418 6.81465 56.1538 10.8527 56.0276 12.8717V48.8353Z" fill="url(#paint5_linear_450_13502)"/>
<path d="M140.105 15.2452C140.085 13.9516 141.149 12.9029 142.442 12.9404L161.779 13.5009C164.235 13.5721 166.19 15.5841 166.19 18.0417V37.4797C166.19 39.2925 164.608 40.6993 162.808 40.4874L145.716 38.4766C142.7 38.1219 140.413 35.589 140.367 32.5529L140.105 15.2452Z" fill="white"/>
<defs>
<linearGradient id="paint0_linear_450_13502" x1="1.32545e-05" y1="-77.2719" x2="205.652" y2="64.0501" gradientUnits="userSpaceOnUse">
<stop offset="0.111114" stop-color="#952EF1"/>
<stop offset="1" stop-color="#17C4E7"/>
</linearGradient>
<linearGradient id="paint1_linear_450_13502" x1="1.32545e-05" y1="-77.2719" x2="205.652" y2="64.0501" gradientUnits="userSpaceOnUse">
<stop offset="0.111114" stop-color="#952EF1"/>
<stop offset="1" stop-color="#17C4E7"/>
</linearGradient>
<linearGradient id="paint2_linear_450_13502" x1="1.32545e-05" y1="-77.2719" x2="205.652" y2="64.0501" gradientUnits="userSpaceOnUse">
<stop offset="0.111114" stop-color="#952EF1"/>
<stop offset="1" stop-color="#17C4E7"/>
</linearGradient>
<linearGradient id="paint3_linear_450_13502" x1="1.32545e-05" y1="-77.2719" x2="205.652" y2="64.0501" gradientUnits="userSpaceOnUse">
<stop offset="0.111114" stop-color="#952EF1"/>
<stop offset="1" stop-color="#17C4E7"/>
</linearGradient>
<linearGradient id="paint4_linear_450_13502" x1="1.32545e-05" y1="-77.2719" x2="205.652" y2="64.0501" gradientUnits="userSpaceOnUse">
<stop offset="0.111114" stop-color="#952EF1"/>
<stop offset="1" stop-color="#17C4E7"/>
</linearGradient>
<linearGradient id="paint5_linear_450_13502" x1="1.32545e-05" y1="-77.2719" x2="205.652" y2="64.0501" gradientUnits="userSpaceOnUse">
<stop offset="0.111114" stop-color="#952EF1"/>
<stop offset="1" stop-color="#17C4E7"/>
</linearGradient>
</defs>
</svg>
